<svg width="19" height="20" viewBox="0 0 19 20" fill="none" xmlns="http://www.w3.org/2000/svg">
<path d="M10.5889 0.867987H8.88269C7.08138 0.842415 5.32642 1.43096 3.91484 2.53401C2.50326 3.63705 1.5218 5.1868 1.13651 6.92104C0.9148 8.01671 0.942109 9.14718 1.21638 10.2312C1.49066 11.3153 2.00513 12.326 2.72286 13.1908C3.4406 14.0557 4.34373 14.7532 5.36748 15.2332C6.39122 15.7132 7.51019 15.9638 8.6439 15.9671H9.56522V18.1193C9.56932 18.3083 9.6255 18.4925 9.72768 18.6525C9.82986 18.8124 9.97425 18.9419 10.1454 19.0273C10.3028 19.0609 10.4657 19.0609 10.6231 19.0273C10.8446 19.0273 11.0601 18.9565 11.2373 18.8255C14.4633 16.6193 16.7862 13.3526 17.7892 9.61137C18.0778 8.56547 18.0778 7.46254 17.7892 6.41664C17.3608 4.84805 16.4271 3.45892 15.1286 2.45827C13.8302 1.45762 12.237 0.899577 10.5889 0.867987ZM15.8782 9.20785C15.1894 11.7798 13.7825 14.1099 11.8174 15.9335V14.9246C11.8174 14.6481 11.706 14.3829 11.5076 14.1874C11.3092 13.9919 11.0402 13.8821 10.7596 13.8821H8.6439C7.82922 13.8773 7.02534 13.6973 6.28859 13.3546C5.55183 13.0119 4.89996 12.5148 4.37836 11.8981C3.70207 11.082 3.2788 10.0911 3.1592 9.04406C3.03961 7.99702 3.22879 6.93816 3.70406 5.99433C4.17934 5.0505 4.92056 4.26171 5.83902 3.72231C6.75748 3.18291 7.81417 2.91576 8.88269 2.95293H10.5889C11.8176 2.95281 13.0114 3.3561 13.9816 4.09905C14.9517 4.842 15.6431 5.88226 15.9465 7.05558C16.1334 7.80994 16.1099 8.60006 15.8782 9.34229V9.20785Z" fill="#909CA5"/>
</svg>
