<svg width="29" height="26" viewBox="0 0 29 26" fill="none" xmlns="http://www.w3.org/2000/svg">
<g filter="url(#filter0_d_201_238)">
<path d="M18.7928 0.105618C17.9915 0.103199 17.1978 0.259796 16.4591 0.565996C15.7204 0.872197 15.0518 1.32173 14.4931 1.88792C13.9433 1.31957 13.2812 0.868216 12.5476 0.561686C11.814 0.255157 11.0244 0.0999524 10.2276 0.105618C8.64657 0.114446 7.13286 0.73733 6.01487 1.83907C4.89689 2.9408 4.26482 4.43251 4.25586 5.99057V5.99057C4.25586 6.2596 4.25584 13.3215 14.0495 17.7605C14.1879 17.8261 14.3396 17.8601 14.4931 17.8601C14.6467 17.8601 14.7984 17.8261 14.9368 17.7605C23.3655 13.9605 24.5598 8.21005 24.6963 6.52864C24.7148 6.30482 24.7148 6.07985 24.6963 5.85603C24.661 4.33024 24.0256 2.87767 22.9241 1.80479C21.8227 0.731906 20.3414 0.122664 18.7928 0.105618V0.105618ZM22.6147 6.46142C22.6147 7.84018 21.5228 12.4809 14.4931 15.8101C6.40569 11.9765 6.37155 6.39417 6.37155 6.15878C6.38465 6.10347 6.38465 6.04588 6.37155 5.99057C6.37349 5.154 6.65549 4.34144 7.17384 3.67893C7.69219 3.01643 8.41799 2.54103 9.2385 2.32643C10.059 2.11183 10.9284 2.17006 11.7119 2.49207C12.4954 2.81409 13.1492 3.38187 13.5718 4.1074C13.6704 4.26017 13.8065 4.38591 13.9676 4.47305C14.1286 4.56019 14.3094 4.60595 14.4931 4.60595C14.6769 4.60595 14.8577 4.56019 15.0187 4.47305C15.1798 4.38591 15.3159 4.26017 15.4145 4.1074C15.7596 3.51828 16.2575 3.03027 16.8572 2.69342C17.4569 2.35657 18.1367 2.18299 18.8269 2.19056C19.8496 2.19056 20.8304 2.591 21.5536 3.30363C22.2767 4.01627 22.683 4.98275 22.683 5.99057C22.683 5.99057 22.6147 6.29328 22.6147 6.46142Z" fill="#909CA5"/>
</g>
<defs>
<filter id="filter0_d_201_238" x="0.255859" y="0.105469" width="28.4543" height="25.7547" filterUnits="userSpaceOnUse" color-interpolation-filters="sRGB">
<feFlood flood-opacity="0" result="BackgroundImageFix"/>
<feColorMatrix in="SourceAlpha" type="matrix" values="0 0 0 0 0 0 0 0 0 0 0 0 0 0 0 0 0 0 127 0" result="hardAlpha"/>
<feOffset dy="4"/>
<feGaussianBlur stdDeviation="2"/>
<feComposite in2="hardAlpha" operator="out"/>
<feColorMatrix type="matrix" values="0 0 0 0 0 0 0 0 0 0 0 0 0 0 0 0 0 0 0.25 0"/>
<feBlend mode="normal" in2="BackgroundImageFix" result="effect1_dropShadow_201_238"/>
<feBlend mode="normal" in="SourceGraphic" in2="effect1_dropShadow_201_238" result="shape"/>
</filter>
</defs>
</svg>
