<svg width="116" height="38" viewBox="0 0 116 38" fill="none" xmlns="http://www.w3.org/2000/svg">
<path fill-rule="evenodd" clip-rule="evenodd" d="M86 35.093C86 34.347 86.2 33.76 86.6 33.333C87 32.907 87.52 32.693 88.16 32.693C88.573 32.693 88.947 32.787 89.28 32.987C89.613 33.187 89.867 33.467 90.04 33.813C90.213 34.173 90.307 34.573 90.307 35.027C90.307 35.48 90.213 35.893 90.027 36.253C89.84 36.613 89.587 36.893 89.24 37.08C88.907 37.267 88.533 37.36 88.147 37.36C87.72 37.36 87.347 37.253 87.013 37.053C86.68 36.853 86.427 36.573 86.253 36.213C86.08 35.853 86 35.48 86 35.093ZM0 37.36L6.307 37.267L10.507 20.853L12.4 29.68H18.12L21.413 20.853L22.093 29.627L27.813 29.68L26.16 6.493H20.68L15.733 19.827L12.867 6.493H7.627L0 37.36ZM84.84 35.707L85.44 35.853C85.32 36.347 85.093 36.72 84.76 36.973C84.44 37.227 84.04 37.36 83.573 37.36C83.093 37.36 82.693 37.267 82.387 37.067C82.08 36.867 81.853 36.587 81.693 36.213C81.533 35.84 81.453 35.44 81.453 35C81.453 34.533 81.547 34.12 81.72 33.773C81.893 33.427 82.16 33.16 82.48 32.973C82.813 32.787 83.173 32.707 83.573 32.707C84.027 32.707 84.4 32.827 84.707 33.053C85.013 33.28 85.227 33.6 85.347 34.027L84.76 34.16C84.653 33.827 84.507 33.587 84.307 33.44C84.107 33.293 83.853 33.213 83.56 33.213C83.213 33.213 82.92 33.293 82.693 33.467C82.467 33.64 82.293 33.853 82.2 34.133C82.107 34.413 82.053 34.707 82.053 35C82.053 35.387 82.107 35.72 82.227 36C82.333 36.293 82.507 36.507 82.747 36.64C82.987 36.787 83.24 36.853 83.507 36.853C83.84 36.853 84.12 36.76 84.36 36.56C84.613 36.373 84.76 36.08 84.84 35.707ZM65.6 35.707L66.2 35.853C66.08 36.347 65.853 36.72 65.52 36.973C65.2 37.227 64.8 37.36 64.333 37.36C63.853 37.36 63.453 37.267 63.147 37.067C62.84 36.867 62.613 36.587 62.453 36.213C62.293 35.84 62.213 35.44 62.213 35C62.213 34.533 62.307 34.12 62.48 33.773C62.653 33.427 62.92 33.16 63.24 32.973C63.573 32.787 63.933 32.707 64.333 32.707C64.787 32.707 65.16 32.827 65.467 33.053C65.773 33.28 65.987 33.6 66.107 34.027L65.52 34.16C65.413 33.827 65.267 33.587 65.067 33.44C64.867 33.293 64.613 33.213 64.32 33.213C63.973 33.213 63.68 33.293 63.453 33.467C63.227 33.627 63.053 33.853 62.96 34.133C62.867 34.413 62.813 34.707 62.813 35C62.813 35.387 62.867 35.72 62.987 36C63.093 36.293 63.267 36.507 63.507 36.64C63.747 36.787 64 36.853 64.267 36.853C64.6 36.853 64.88 36.76 65.12 36.56C65.36 36.373 65.52 36.08 65.6 35.707ZM57.973 35.84L58.533 35.787C58.56 36.013 58.627 36.2 58.72 36.347C58.813 36.493 58.973 36.613 59.173 36.693C59.373 36.787 59.613 36.827 59.867 36.827C60.093 36.827 60.293 36.787 60.467 36.72C60.64 36.653 60.773 36.56 60.853 36.44C60.933 36.32 60.987 36.2 60.987 36.053C60.987 35.907 60.947 35.787 60.867 35.68C60.787 35.573 60.653 35.48 60.467 35.413C60.347 35.36 60.08 35.293 59.667 35.187C59.253 35.093 58.96 35 58.8 34.907C58.587 34.8 58.427 34.653 58.32 34.48C58.213 34.32 58.16 34.12 58.16 33.92C58.16 33.693 58.227 33.48 58.36 33.28C58.493 33.08 58.68 32.933 58.92 32.827C59.173 32.72 59.44 32.667 59.747 32.667C60.08 32.667 60.373 32.72 60.627 32.827C60.88 32.933 61.08 33.093 61.213 33.307C61.347 33.52 61.427 33.747 61.44 34.013L60.867 34.053C60.84 33.773 60.733 33.547 60.56 33.413C60.387 33.267 60.12 33.2 59.773 33.2C59.413 33.2 59.147 33.267 58.987 33.4C58.827 33.533 58.733 33.693 58.733 33.88C58.733 34.04 58.787 34.173 58.907 34.28C59.027 34.387 59.32 34.493 59.8 34.6C60.28 34.707 60.613 34.8 60.8 34.893C61.067 35.013 61.253 35.173 61.387 35.347C61.507 35.533 61.573 35.747 61.573 35.987C61.573 36.227 61.507 36.453 61.373 36.667C61.24 36.88 61.04 37.04 60.787 37.16C60.533 37.28 60.24 37.333 59.92 37.333C59.507 37.333 59.173 37.28 58.893 37.16C58.613 37.04 58.4 36.867 58.24 36.627C58.067 36.4 57.987 36.133 57.973 35.84ZM53.4 33.307H50.733V34.693H53.227V35.227H50.733V36.76H53.507V37.293H50.147V32.773H53.4V33.307ZM43.947 33.307H41.28V34.693H43.773V35.227H41.28V36.76H44.053V37.293H40.693V32.773H43.947V33.307ZM74.747 33.307H72.08V34.693H74.573V35.227H72.08V36.76H74.853V37.293H71.493V32.773H74.747V33.307ZM75.653 37.28V32.773H76.253V35.013L78.493 32.773H79.307L77.413 34.6L79.387 37.28H78.6L77 35L76.267 35.72V37.28H75.653ZM110.08 37.28V35.373L108.347 32.773H109.067L109.96 34.133C110.12 34.387 110.28 34.64 110.413 34.893C110.547 34.653 110.707 34.387 110.907 34.093L111.773 32.773H112.467L110.667 35.373V37.28H110.08ZM104.253 37.28V32.773H104.867L107.24 36.307V32.773H107.813V37.28H107.2L104.827 33.733V37.28H104.253ZM96.32 37.28V32.773H98.027C98.333 32.773 98.56 32.787 98.707 32.813C98.933 32.853 99.107 32.92 99.267 33.027C99.413 33.133 99.533 33.28 99.627 33.467C99.72 33.653 99.76 33.853 99.76 34.08C99.76 34.467 99.64 34.787 99.4 35.053C99.16 35.32 98.72 35.453 98.08 35.453H96.92V37.28H96.32ZM99.56 37.28L101.293 32.773H101.933L103.773 37.28H103.093L102.573 35.92H100.693L100.2 37.28H99.56ZM44.867 37.28V32.773H45.76L46.827 35.96C46.92 36.253 47 36.48 47.04 36.627C47.093 36.467 47.173 36.227 47.28 35.907L48.36 32.773H49.16V37.28H48.587V33.507L47.28 37.28H46.747L45.44 33.44V37.28H44.867ZM30.04 37.28L31.773 32.773H32.413L34.253 37.28H33.573L33.053 35.92H31.173L30.68 37.28H30.04ZM91.053 37.28V32.773H91.947L93.013 35.96C93.107 36.253 93.187 36.48 93.227 36.627C93.28 36.467 93.36 36.227 93.467 35.907L94.547 32.773H95.347V37.28H94.773V33.507L93.467 37.28H92.933L91.627 33.44V37.28H91.053ZM66.947 37.28V32.773H67.547V34.627H69.893V32.773H70.493V37.28H69.893V35.16H67.547V37.28H66.947ZM55.48 37.28V33.307H54V32.773H57.573V33.307H56.08V37.28H55.48ZM36.133 37.28V32.773H36.747L39.12 36.307V32.773H39.693V37.28H39.08L36.707 33.733V37.28H36.133ZM86.613 35.093C86.613 35.64 86.76 36.067 87.053 36.373C87.347 36.68 87.707 36.84 88.147 36.84C88.6 36.84 88.96 36.68 89.253 36.36C89.547 36.04 89.693 35.6 89.693 35.013C89.693 34.64 89.627 34.32 89.507 34.053C89.387 33.787 89.2 33.573 88.96 33.413C88.72 33.267 88.453 33.187 88.16 33.187C87.733 33.187 87.373 33.333 87.067 33.627C86.76 33.933 86.613 34.413 86.613 35.093ZM31.333 35.427H32.867L32.4 34.173C32.253 33.8 32.147 33.48 32.08 33.24C32.027 33.533 31.947 33.813 31.84 34.107L31.333 35.427ZM100.867 35.427H102.4L101.933 34.173C101.787 33.8 101.68 33.48 101.613 33.24C101.56 33.533 101.48 33.813 101.373 34.107L100.867 35.427ZM96.92 34.92H98.08C98.467 34.92 98.733 34.853 98.907 34.707C99.067 34.56 99.147 34.36 99.147 34.107C99.147 33.92 99.093 33.76 99 33.627C98.907 33.493 98.773 33.4 98.627 33.36C98.52 33.333 98.347 33.32 98.067 33.32H96.92V34.92ZM29.04 30.493L34.04 4.787L40.2 3.04L51.36 22.92L47.093 28.493L44.227 22.68L35.933 25.2L35.2 28.987L29.04 30.493ZM69.387 17.667C69.387 10.84 74.92 5.293 81.76 5.293C88.587 5.293 94.133 10.827 94.133 17.667C94.133 24.493 88.6 30.04 81.76 30.04C74.92 30.027 69.387 24.493 69.387 17.667ZM94.56 29.627H100.773L102.133 17.933L107.613 29.627H112.853L116 0H109.787L107.853 17.547L102.707 6.44H97.173L94.56 29.627ZM56.493 6.293H49.747L56.973 17.733L48.147 29.613H54.787L59.973 22.627L64.333 29.613H71.267L63.653 17.733L72.04 6.293H65.2L60.587 12.84L56.493 6.293ZM74.96 17.667C74.96 21.427 78 24.467 81.76 24.467C85.52 24.467 88.56 21.427 88.56 17.667C88.56 13.907 85.52 10.867 81.76 10.867C78 10.867 74.96 13.907 74.96 17.667ZM36.8 20.693L42.333 18.893L38.547 11.08L36.8 20.693Z" fill="#BE9868"/>
</svg>
