<svg width="13" height="14" viewBox="0 0 13 14" fill="none" xmlns="http://www.w3.org/2000/svg">
<path d="M2.42983 6.52744L5.39864 3.60179V12.5469C5.39864 12.8234 5.51007 13.0886 5.70845 13.2841C5.90684 13.4796 6.17592 13.5894 6.45649 13.5894C6.73705 13.5894 7.00613 13.4796 7.20452 13.2841C7.40291 13.0886 7.51434 12.8234 7.51434 12.5469V3.60179L10.4491 6.52744C10.5477 6.6246 10.6647 6.70166 10.7935 6.75424C10.9223 6.80682 11.0604 6.83388 11.1998 6.83388C11.3393 6.83388 11.4773 6.80682 11.6061 6.75424C11.7349 6.70166 11.852 6.6246 11.9506 6.52744C12.0492 6.43029 12.1274 6.315 12.1807 6.18806C12.2341 6.06112 12.2615 5.92501 12.2615 5.78761C12.2615 5.65022 12.2341 5.51421 12.1807 5.38727C12.1274 5.26033 12.0492 5.14494 11.9506 5.04779L7.17317 0.339844C7.17317 0.339844 7.17311 0.339844 7.00249 0.339844H6.21759H6.04701C6.04701 0.339844 6.04705 0.339844 5.87643 0.339844L1.09892 5.04779C0.899816 5.244 0.787964 5.51013 0.787964 5.78761C0.787964 6.0651 0.899816 6.33123 1.09892 6.52744C1.29803 6.72365 1.56809 6.83388 1.84967 6.83388C2.13125 6.83388 2.4013 6.72365 2.60041 6.52744H2.42983Z" fill="#909CA5"/>
</svg>
