<svg width="13" height="12" viewBox="0 0 13 12" fill="none" xmlns="http://www.w3.org/2000/svg">
<path d="M11.3312 9.99398H4.06273C3.60116 9.99398 3.15849 9.81327 2.83211 9.49163C2.50574 9.17 2.32235 8.73377 2.32235 8.27891V1.04884C2.34796 0.922036 2.34475 0.791257 2.31288 0.665841C2.28101 0.540425 2.22125 0.42353 2.13803 0.323585C2.0548 0.22364 1.95014 0.143134 1.83154 0.0878539C1.71295 0.0325734 1.58336 0.00390625 1.45216 0.00390625C1.32097 0.00390625 1.19138 0.0325734 1.07278 0.0878539C0.954186 0.143134 0.849528 0.22364 0.766302 0.323585C0.683077 0.42353 0.623427 0.540425 0.591557 0.665841C0.559686 0.791257 0.55637 0.922036 0.581976 1.04884V8.31257C0.581976 9.20445 0.941549 10.0597 1.58151 10.6904C2.22146 11.3211 3.08938 11.6754 3.99441 11.6754H11.2629C11.4923 11.6667 11.7093 11.5708 11.8684 11.4078C12.0275 11.2447 12.1162 11.0272 12.116 10.801C12.1083 10.5951 12.0241 10.3991 11.8794 10.2503C11.7347 10.1016 11.5397 10.0103 11.3312 9.99398Z" fill="#909CA5"/>
</svg>
