<svg width="144" height="146" viewBox="0 0 144 146" fill="none" xmlns="http://www.w3.org/2000/svg">
<path fill-rule="evenodd" clip-rule="evenodd" d="M48.4657 73.5026C49.0488 86.1246 59.5009 96.2518 72.3018 96.2518C85.1027 96.2518 95.5547 86.1247 96.138 73.5028C95.5549 60.8455 85.1028 50.7568 72.3018 50.7568C59.5009 50.7568 49.0489 60.8454 48.4657 73.5026ZM143.683 61.4992V62.242V62.9849V63.7278V83.24V83.9827V84.7256V85.4685L124.716 88.3238C123.613 92.6651 121.945 96.8072 119.802 100.69L130.468 115.178L130.153 115.493L130.468 115.921L130.153 116.236L130.468 116.664L130.153 116.979L130.468 117.407L115.09 132.784L99.6307 121.404C95.3478 123.892 90.7794 125.809 86.0071 127.033L83.1518 146H61.4111L58.5558 127.033C53.7835 125.809 49.215 123.892 44.9322 121.404L29.5138 132.784L14.1362 117.407L14.4516 116.979L14.1362 116.664L14.4516 116.236L14.1362 115.921L14.4516 115.493L14.1362 115.178L24.801 100.729C22.6656 96.8464 21.0278 92.705 19.8875 88.3646L0.920405 85.5093V84.7664V84.0235V63.7686V63.0257V62.2828L0.92041 61.54L19.8875 58.6848C21.0279 54.3438 22.666 50.2019 24.8018 46.3189L14.1362 31.8305L14.4512 31.5155L14.1362 31.0876L14.4512 30.7726L14.1362 30.3447L14.4511 30.0297L14.1362 29.6019L29.5546 14.1835L44.973 25.5638C49.2558 23.0756 53.8242 21.1993 58.5966 19.9348L61.4519 0.967773H83.1926L86.0479 19.9348C90.8202 21.1585 95.3886 23.0756 99.6715 25.5638L115.09 14.1835L130.468 29.5611L130.153 29.989L130.468 30.3039L130.153 30.7318L130.468 31.0468L130.153 31.4747L130.468 31.7897L119.798 46.2827C121.936 50.1971 123.575 54.3375 124.716 58.644L143.683 61.4992Z" fill="#8F4328"/>
<path d="M72.3018 95.5086C59.1269 95.5086 48.4401 84.781 48.4401 71.6468C48.4401 58.4719 59.1269 47.785 72.3018 47.785C85.4768 47.785 96.1636 58.4719 96.1636 71.6468C96.1636 84.781 85.4768 95.5086 72.3018 95.5086ZM143.683 82.4968V60.7561L124.716 57.9008C123.452 53.1284 121.575 48.56 119.087 44.2772L130.468 28.818L115.09 13.4404L99.6715 24.8206C95.3886 22.3325 90.8202 20.4154 86.0479 19.1917L83.1926 0.224609H61.4519L58.5966 19.1917C53.8242 20.4561 49.2558 22.3325 44.973 24.8206L29.5546 13.4404L14.1362 28.8587L25.5164 44.3179C23.0283 48.56 21.1519 53.1285 19.8875 57.9416L0.92041 60.7969V82.5376L19.8875 85.3929C21.1519 90.206 23.0283 94.7744 25.5164 99.0165L14.1362 114.435L29.5138 129.812L44.9322 118.432C49.215 120.92 53.7835 122.838 58.5558 124.061L61.4111 143.028H83.1518L86.0071 124.061C90.7794 122.838 95.3479 120.92 99.6307 118.432L115.09 129.812L130.468 114.435L119.087 98.9757C121.575 94.7336 123.493 90.1652 124.716 85.3521L143.683 82.4968Z" fill="#D6663E"/>
</svg>
