<svg width="33" height="27" viewBox="0 0 33 27" fill="none" xmlns="http://www.w3.org/2000/svg">
<path d="M33 3.19638C31.7728 3.73846 30.4652 4.09777 29.1019 4.27223C30.5044 3.429 31.5748 2.10392 32.0781 0.506769C30.7704 1.29185 29.3267 1.84638 27.7881 2.15585C26.5464 0.824539 24.7768 0 22.8463 0C19.1008 0 16.0854 3.06138 16.0854 6.81438C16.0854 7.35438 16.1308 7.87361 16.2422 8.36792C10.6178 8.09169 5.64094 5.37715 2.29763 1.242C1.71394 2.26177 1.37156 3.429 1.37156 4.68554C1.37156 7.04492 2.57813 9.13638 4.37663 10.3472C3.28969 10.3265 2.22338 10.0087 1.32 9.50815C1.32 9.52892 1.32 9.55592 1.32 9.58292C1.32 12.8935 3.66506 15.6434 6.74025 16.2768C6.18956 16.4285 5.58938 16.5012 4.9665 16.5012C4.53338 16.5012 4.09613 16.4762 3.68569 16.3848C4.56225 19.0828 7.04963 21.0662 10.0073 21.1306C7.7055 22.9438 4.78294 24.0362 1.61906 24.0362C1.06425 24.0362 0.532125 24.0113 0 23.9428C2.99681 25.8888 6.54844 27 10.3785 27C22.8278 27 29.634 16.6154 29.634 7.614C29.634 7.31285 29.6237 7.02208 29.6093 6.73338C30.9519 5.77385 32.0801 4.57546 33 3.19638Z" fill="#9D7849"/>
</svg>
