<svg viewBox="0 0 473 120" xmlns="http://www.w3.org/2000/svg">
    <path d="M0 33.1788C0 13.7086 13.1126 0 33.7748 0C42.9139 0 49.2715 2.58278 55.6291 7.35099L53.4437 10.5298C48.0794 6.35761 42.3178 3.77483 33.7748 3.77483C15.6954 3.77483 3.77483 16.0927 3.77483 33.1788C3.77483 50.2649 15.6954 62.5827 33.7748 62.5827C42.3178 62.5827 47.8808 59.8013 53.4437 55.8278L55.6291 59.0066C49.2715 63.7748 42.9139 66.3576 33.7748 66.3576C13.1126 66.3576 0 52.649 0 33.1788Z" fill="#E5422B"/>
    <path d="M82.4503 25.4306H81.2583C72.3179 25.4306 66.755 32.9803 66.755 43.7088V64.967H63.5762V23.0465H66.5563V32.7816H66.755C67.947 26.6227 73.5099 21.8545 80.6622 21.8545H82.4503V25.4306Z" fill="#E5422B"/>
    <path d="M81.457 44.1061C81.457 30.3975 90.5961 21.8545 102.715 21.8545C111.457 21.8545 117.616 26.2253 120.993 32.3843H121.192V23.0465H124.371V64.967H121.192V55.6293H120.993C117.815 61.9869 111.457 66.1591 102.715 66.1591C90.5961 66.3578 81.457 57.8147 81.457 44.1061ZM121.391 44.1061C121.391 32.9803 114.238 25.0333 103.113 25.0333C91.9868 25.0333 84.8345 32.9803 84.8345 44.1061C84.8345 55.2319 91.9868 63.179 103.113 63.179C114.238 62.9803 121.391 55.0333 121.391 44.1061Z" fill="#E5422B"/>
    <path d="M143.443 14.7017V23.046H154.569V26.2248H143.443V64.9665H140.264V26.2248H131.125V23.046H140.264V14.503C140.264 3.97319 146.026 0.595703 153.377 0.595703H154.569V3.77451H153.575C147.814 3.77451 143.443 6.35729 143.443 14.7017Z" fill="#E5422B"/>
    <path d="M170.066 26.2249V54.8342C170.066 59.4037 172.45 61.9865 176.424 61.9865H178.808V65.1653H176.225C170.861 65.1653 166.688 61.9865 166.688 55.4302V26.2249H157.748V23.0461H166.688V6.35742H169.867V23.0461H180.198V26.2249H170.066Z" fill="#E5422B"/>
    <path d="M254.106 19.4701C254.106 29.8012 247.152 37.5495 235.828 37.5495H218.543V64.9667H214.967V1.39062H236.026C247.152 1.39062 254.106 9.13896 254.106 19.4701ZM250.331 19.4701C250.331 9.93366 244.172 4.7681 235.828 4.7681H218.344V33.9734H235.828C244.172 34.172 250.331 29.0065 250.331 19.4701Z" fill="#E5422B"/>
    <path d="M253.709 44.1061C253.709 30.3975 262.848 21.8545 274.967 21.8545C283.709 21.8545 289.868 26.2253 293.245 32.3843H293.444V23.0465H296.623V64.967H293.444V55.6293H293.047C289.868 61.9869 283.51 66.1591 274.769 66.1591C262.649 66.3578 253.709 57.8147 253.709 44.1061ZM293.643 44.1061C293.643 32.9803 286.49 25.0333 275.365 25.0333C264.239 25.0333 257.086 32.9803 257.086 44.1061C257.086 55.2319 264.239 63.179 275.365 63.179C286.292 62.9803 293.643 55.0333 293.643 44.1061Z" fill="#E5422B"/>
    <path d="M326.026 25.4306H324.834C315.894 25.4306 310.331 32.9803 310.331 43.7088V64.967H306.953V23.0465H310.132V32.7816H310.331C311.523 26.6227 317.086 21.8545 324.238 21.8545H326.026V25.4306Z" fill="#E5422B"/>
    <path d="M342.318 26.2249V54.8342C342.318 59.4037 344.702 61.9865 348.675 61.9865H351.06V65.1653H348.477C343.113 65.1653 338.94 61.9865 338.94 55.4302V26.2249H330V23.0461H338.94V6.35742H342.119V23.0461H352.45V26.2249H342.318Z" fill="#E5422B"/>
    <path d="M396.357 39.9344V65.1661H393.178V39.9344C393.178 29.4046 387.417 25.0337 379.668 25.0337C371.523 25.0337 362.98 30.1993 362.98 46.6893V64.9675H359.801V23.047H362.98V33.5768H363.178C365.96 25.6298 371.721 21.6562 379.867 21.6562C389.801 21.6562 396.357 27.2192 396.357 39.9344Z" fill="#E5422B"/>
    <path d="M445.033 43.3102V44.3036H407.086C407.086 56.0255 414.437 63.1778 425.365 63.1778C434.504 63.1778 438.477 58.4096 441.656 54.2374L444.239 56.2241C441.259 60.595 435.894 66.5553 425.365 66.5553C412.053 66.5553 403.709 57.6149 403.709 44.3036C403.709 29.8003 412.848 21.8533 424.769 21.8533C439.669 21.6546 445.033 32.3831 445.033 43.3102ZM407.086 41.1248H441.457C440.663 30.9924 435.1 25.0321 424.769 25.0321C415.828 25.0321 408.08 30.3963 407.086 41.1248Z" fill="#E5422B"/>
    <path d="M471.855 25.4306H470.663C461.722 25.4306 456.159 32.9803 456.159 43.7088V64.967H452.98V23.0465H456.159V32.7816H456.358C457.55 26.6227 463.113 21.8545 470.265 21.8545H472.053V25.4306H471.855Z" fill="#E5422B"/>
    <path d="M51.6554 112.649H49.0727L39.9336 87.8145H43.1124L50.2647 108.675H50.4634L57.6157 87.8145H60.7945L51.6554 112.649Z" fill="#E5422B"/>
    <path d="M75.6957 104.503V104.901H61.9871C61.9871 108.477 64.3712 110.861 67.9473 110.861C70.9275 110.861 72.5169 109.073 73.5102 107.682L75.2983 109.272C74.1063 111.06 71.9208 113.245 67.9473 113.245C62.7818 113.245 59.4043 109.669 59.4043 104.503C59.4043 99.3379 62.7818 95.7617 67.7487 95.7617C73.1129 95.7617 75.6957 99.5365 75.6957 104.503ZM62.1858 102.914H72.9142C72.7155 99.9339 70.7288 98.1458 67.7487 98.1458C64.7685 98.1458 62.5831 99.7352 62.1858 102.914Z" fill="#E5422B"/>
    <path d="M87.6158 98.7414H87.2185C83.841 98.7414 81.8543 100.927 81.8543 104.9V112.649H79.2715V96.3573H81.8543V100.132C82.4503 97.748 84.437 95.96 87.2185 95.96H87.6158V98.7414Z" fill="#E5422B"/>
    <path d="M93.1788 92.5823H90V88.4102H93.1788V92.5823ZM90.3974 96.3572H92.9801V112.649H90.3974V96.3572Z" fill="#E5422B"/>
    <path d="M104.9 87.6152H105.496V89.9993H105.099C103.112 89.9993 101.721 90.794 101.721 93.5755V96.357H105.496V98.5424H101.721V112.648H99.1383V98.5424H96.1582V96.357H99.1383V93.5755C99.1383 89.602 101.324 87.6152 104.9 87.6152ZM111.258 88.2113V92.3834H108.079V88.2113H111.258ZM108.476 96.357H111.059V112.648H108.476V96.357Z" fill="#E5422B"/>
    <path d="M130.729 104.503V104.901H117.02C117.02 108.477 119.404 110.861 122.981 110.861C125.961 110.861 127.55 109.073 128.543 107.682L130.332 109.272C129.139 111.06 126.954 113.245 122.981 113.245C117.815 113.245 114.438 109.669 114.438 104.503C114.438 99.3379 117.815 95.7617 122.782 95.7617C128.146 95.7617 130.729 99.5365 130.729 104.503ZM117.219 102.914H127.947C127.749 99.9339 125.762 98.1458 122.782 98.1458C119.802 98.1458 117.418 99.7352 117.219 102.914Z" fill="#E5422B"/>
    <path d="M132.914 104.503C132.914 99.1389 136.49 95.7615 141.06 95.7615C144.04 95.7615 146.225 97.1522 147.219 99.1389V87.8145H149.801V112.649H147.219V109.669C146.027 111.655 144.04 113.046 141.06 113.046C136.49 113.245 132.914 109.867 132.914 104.503ZM147.417 104.503C147.417 100.927 145.033 98.3442 141.457 98.3442C137.881 98.3442 135.497 100.927 135.497 104.503C135.497 108.079 137.881 110.662 141.457 110.662C145.033 110.662 147.417 108.079 147.417 104.503Z" fill="#E5422B"/>
    <path d="M169.073 93.5759V96.3574H172.847V98.5428H169.073V112.649H166.49V98.5428H163.51V96.3574H166.49V93.5759C166.49 89.4037 168.675 87.417 172.251 87.417H172.847V89.8011H172.45C170.662 89.9998 169.073 90.7945 169.073 93.5759Z" fill="#E5422B"/>
    <path d="M191.324 104.503C191.324 109.669 187.549 113.245 182.384 113.245C177.218 113.245 173.443 109.669 173.443 104.503C173.443 99.3379 177.218 95.7617 182.384 95.7617C187.549 95.7617 191.324 99.5365 191.324 104.503ZM176.225 104.503C176.225 108.278 178.808 110.662 182.384 110.662C185.96 110.662 188.543 108.278 188.543 104.503C188.543 100.729 185.96 98.3445 182.384 98.3445C178.808 98.3445 176.225 100.729 176.225 104.503Z" fill="#E5422B"/>
    <path d="M203.046 98.7414H202.648C199.271 98.7414 197.284 100.927 197.284 104.9V112.649H194.701V96.3573H197.284V100.132C197.88 97.748 199.867 95.96 202.648 95.96H203.046V98.7414Z" fill="#E5422B"/>
    <path d="M230.86 110.066V112.649H216.754V87.8145H230.661V90.3972H219.535V97.5495H229.866V100.132H219.535V110.066H230.86Z" fill="#E5422B"/>
    <path d="M249.337 102.715V112.649H246.754V103.113C246.754 99.7352 244.966 98.3445 242.383 98.3445C239.602 98.3445 237.218 100.133 237.218 105.099V112.649H234.635V96.3577H237.218V99.5365C238.211 97.1524 240.198 95.7617 242.979 95.7617C246.754 95.7617 249.337 97.7485 249.337 102.715Z" fill="#E5422B"/>
    <path d="M256.888 98.543V108.278C256.888 109.669 257.683 110.464 258.875 110.464H259.669V112.848H258.279C255.696 112.848 254.107 111.457 254.107 108.874V98.7417H250.928V96.5563H254.107V90H256.689V96.5563H260.265V98.7417H256.888V98.543Z" fill="#E5422B"/>
    <path d="M277.549 104.503V104.901H263.841C263.841 108.477 266.225 110.861 269.801 110.861C272.781 110.861 274.37 109.073 275.364 107.682L277.152 109.272C275.96 111.06 273.774 113.245 269.801 113.245C264.635 113.245 261.258 109.669 261.258 104.503C261.258 99.3379 264.635 95.7617 269.602 95.7617C275.165 95.7617 277.549 99.5365 277.549 104.503ZM264.039 102.914H274.768C274.569 99.9339 272.582 98.1458 269.602 98.1458C266.821 98.1458 264.437 99.7352 264.039 102.914Z" fill="#E5422B"/>
    <path d="M289.469 98.7414H289.072C285.695 98.7414 283.708 100.927 283.708 104.9V112.649H281.125V96.3573H283.708V100.132C284.304 97.748 286.291 95.96 289.072 95.96H289.469V98.7414Z" fill="#E5422B"/>
    <path d="M292.252 96.3573H294.835V99.3374C296.027 97.3507 298.014 95.96 300.994 95.96C305.563 95.96 309.139 99.3374 309.139 104.702C309.139 110.066 305.563 113.443 300.994 113.443C298.014 113.443 295.828 112.053 294.835 110.066V120H292.252V96.3573ZM306.557 104.503C306.557 100.927 304.172 98.3441 300.596 98.3441C297.02 98.3441 294.636 100.927 294.636 104.503C294.636 108.079 297.02 110.662 300.596 110.662C304.172 110.662 306.557 108.079 306.557 104.503Z" fill="#E5422B"/>
    <path d="M321.059 98.7414H320.463C317.085 98.7414 315.098 100.927 315.098 104.9V112.649H312.516V96.3573H315.098V100.132C315.694 97.748 317.681 95.96 320.463 95.96H320.86V98.7414H321.059Z" fill="#E5422B"/>
    <path d="M326.821 92.5823H323.643V88.4102H326.821V92.5823ZM323.841 96.3572H326.424V112.649H323.841V96.3572Z" fill="#E5422B"/>
    <path d="M329.006 111.258L330.198 109.073C331.787 110.066 333.774 110.861 335.761 110.861C337.946 110.861 338.94 110.066 338.94 108.675C338.94 107.682 338.145 106.887 336.754 106.291L333.774 104.9C331.39 103.708 330.198 102.318 330.198 100.331C330.198 97.5494 332.383 95.96 335.761 95.96C337.748 95.96 339.536 96.3573 341.324 97.152L340.132 99.3374C338.741 98.7414 337.35 98.1454 335.562 98.1454C333.774 98.1454 332.781 98.7414 332.781 99.9335C332.781 101.126 333.575 101.722 335.165 102.318L338.145 103.708C340.33 104.702 341.721 105.894 341.721 108.278C341.721 111.457 339.337 113.046 335.562 113.046C333.178 113.245 330.794 112.45 329.006 111.258Z" fill="#E5422B"/>
    <path d="M360 104.503V104.901H346.292C346.292 108.477 348.676 110.861 352.252 110.861C355.232 110.861 356.822 109.073 357.815 107.682L359.603 109.272C358.411 111.06 356.226 113.245 352.252 113.245C347.086 113.245 343.709 109.669 343.709 104.503C343.709 99.3379 347.086 95.7617 352.053 95.7617C357.418 95.7617 360 99.5365 360 104.503ZM346.49 102.914H357.219C357.02 99.9339 355.033 98.1458 352.053 98.1458C349.272 98.1458 346.888 99.7352 346.49 102.914Z" fill="#E5422B"/>
    <path d="M18.476 114.835C26.486 114.835 32.9793 108.341 32.9793 100.331C32.9793 92.3214 26.486 85.8281 18.476 85.8281C10.466 85.8281 3.97266 92.3214 3.97266 100.331C3.97266 108.341 10.466 114.835 18.476 114.835Z" fill="#E5422B"/>
    <path d="M15.297 107.087L10.3301 100.53L11.7208 99.537L15.4956 104.305L25.2307 93.7754L26.6214 94.9674L15.297 107.087Z" fill="white"/>
</svg>