<?xml version="1.0" encoding="utf-8"?>
<!-- Generator: Adobe Illustrator 23.1.0, SVG Export Plug-In . SVG Version: 6.00 Build 0)  -->
<svg version="1.1" id="Raw" xmlns="http://www.w3.org/2000/svg" xmlns:xlink="http://www.w3.org/1999/xlink" x="0px" y="0px"
	 viewBox="0 0 184.3 184.2" style="enable-background:new 0 0 184.3 184.2;" xml:space="preserve">
<path d="M92.1,0C41.2,0,0,41.3,0,92.2c0,48.1,37.1,88.2,85,91.9v-70.6H63.8c-3.9,0-7.1-3.2-7.1-7.1s3.2-7.1,7.1-7.1h21.3V78
	c0-15.6,12.7-28.3,28.3-28.3h14.2c3.9,0,7.1,3.2,7.1,7.1s-3.2,7.1-7.1,7.1h-14.2c-7.8,0-14.2,6.3-14.2,14.2v21.3h21.3
	c3.9,0,7.1,3.2,7.1,7.1s-3.2,7.1-7.1,7.1H99.2v70.6c50.7-3.9,88.7-48.2,84.8-99C180.3,37.1,140.2,0,92.1,0z"/>
</svg>
