<svg width="160" height="40" viewBox="0 0 160 40" fill="none" xmlns="http://www.w3.org/2000/svg">
    <g clip-path="url(#clip0)">
        <path fill-rule="evenodd" clip-rule="evenodd" d="M61.1818 8.8302V6.24753C61.1818 4.46086 61.7311 3.1302 62.8285 2.2582C63.9271 1.3862 65.7458 0.950195 68.2871 0.950195C70.3765 0.950195 72.0871 1.2742 73.4231 1.9182L73.0351 6.1502H72.3565C71.9258 4.9222 71.5818 4.03553 71.3231 3.4862C71.0645 2.93686 70.7258 2.5062 70.3058 2.19286C69.8858 1.8822 69.3098 1.72486 68.5778 1.72486C67.9311 1.72486 67.4578 1.85553 67.1565 2.1142C66.8551 2.37286 66.7045 2.7702 66.7045 3.30886C66.7045 3.78086 66.7471 4.20753 66.8338 4.58486C66.9191 4.9622 67.0391 5.39686 67.1885 5.89153C67.2965 6.21553 67.3885 6.54353 67.4631 6.87686C67.5391 7.21153 67.5765 7.55153 67.5765 7.8942V8.8302H71.4858V9.6702H67.5765V22.9462C67.5765 23.1835 67.6258 23.3449 67.7218 23.4302C67.8191 23.5169 68.0285 23.5915 68.3511 23.6569L69.5458 23.9475V24.5275H59.2765V23.9475L60.4058 23.6889C60.7298 23.6235 60.9391 23.5489 61.0365 23.4635C61.1325 23.3769 61.1818 23.2142 61.1818 22.9769V9.6702H59.0818V8.8302H61.1818Z" fill="#1D2633"/>
        <path fill-rule="evenodd" clip-rule="evenodd" d="M79.2944 21.1042C79.477 22.1375 79.805 22.8922 80.2797 23.3655C80.753 23.8389 81.4517 24.0762 82.3784 24.0762C83.305 24.0762 84.0037 23.8389 84.4784 23.3655C84.9517 22.8922 85.2797 22.1375 85.4624 21.1042C85.6464 20.0709 85.7384 18.5962 85.7384 16.6802C85.7384 14.7629 85.6464 13.2895 85.4624 12.2549C85.2797 11.2215 84.9517 10.4669 84.4784 9.99354C84.0037 9.5202 83.305 9.2842 82.3784 9.2842C81.4517 9.2842 80.753 9.5202 80.2797 9.99354C79.805 10.4669 79.477 11.2215 79.2944 12.2549C79.1104 13.2895 79.0197 14.7629 79.0197 16.6802C79.0197 18.5962 79.1104 20.0709 79.2944 21.1042ZM89.8557 22.8815C88.1224 24.2362 85.629 24.9162 82.3784 24.9162C79.1277 24.9162 76.6344 24.2362 74.9024 22.8815C73.1677 21.5229 72.301 19.4575 72.301 16.6802C72.301 13.9015 73.1677 11.8335 74.9024 10.4789C76.6344 9.12154 79.1277 8.44287 82.3784 8.44287C85.629 8.44287 88.1224 9.12154 89.8557 10.4789C91.589 11.8335 92.4557 13.9015 92.4557 16.6802C92.4557 19.4575 91.589 21.5229 89.8557 22.8815Z" fill="#1D2633"/>
        <path fill-rule="evenodd" clip-rule="evenodd" d="M104.112 23.6887C104.596 23.386 104.839 22.8594 104.839 22.106C104.839 21.5887 104.709 21.1687 104.451 20.846C104.193 20.522 103.784 20.2327 103.224 19.974C102.664 19.7167 101.771 19.3594 100.544 18.9087C98.4547 18.154 96.9694 17.374 96.0867 16.566C95.2027 15.7594 94.7627 14.6447 94.7627 13.2234C94.7627 11.6074 95.364 10.4087 96.5707 9.62203C97.776 8.83669 99.6067 8.44336 102.061 8.44336C103.309 8.44336 104.537 8.56736 105.744 8.81536C106.948 9.06203 107.885 9.34736 108.553 9.67003L108.167 13.546H107.616C107.036 12.1047 106.335 11.0114 105.517 10.2687C104.699 9.52603 103.515 9.15403 101.964 9.15403C100.973 9.15403 100.209 9.28869 99.6707 9.55803C99.132 9.82736 98.8627 10.318 98.8627 11.0274C98.8627 11.5234 98.988 11.9207 99.2347 12.222C99.4827 12.5234 99.8707 12.802 100.397 13.0607C100.925 13.3194 101.804 13.6967 103.031 14.1927C104.796 14.9034 106.131 15.518 107.036 16.0327C107.94 16.55 108.607 17.1434 109.037 17.8087C109.468 18.4767 109.684 19.318 109.684 20.3287C109.684 21.9447 109.064 23.1114 107.827 23.8327C106.588 24.5554 104.731 24.9154 102.255 24.9154C100.941 24.9154 99.5694 24.7914 98.1374 24.5434C96.7054 24.2967 95.6334 24.01 94.9227 23.6887L95.376 19.2954H95.924C96.312 20.9967 97.0014 22.2287 97.992 22.9927C98.9814 23.758 100.273 24.1407 101.867 24.1407C102.879 24.1407 103.628 23.99 104.112 23.6887Z" fill="#1D2633"/>
        <path fill-rule="evenodd" clip-rule="evenodd" d="M110.952 9.67059V8.83059C111.619 8.83059 112.116 8.77859 112.437 8.66926C112.761 8.56126 113.084 8.36792 113.407 8.08792L119.156 2.91992H119.447V8.83059H123.613V9.67059H119.447V20.5226C119.447 21.5559 119.571 22.2826 119.819 22.7039C120.065 23.1226 120.491 23.3333 121.095 23.3333C121.567 23.3333 121.988 23.2346 122.353 23.0413C122.72 22.8479 123.117 22.5146 123.549 22.0399L124.065 22.6546C122.709 24.1613 120.707 24.9159 118.059 24.9159C116.271 24.9159 114.989 24.5386 114.215 23.7839C113.439 23.0319 113.052 21.8586 113.052 20.2639V9.67059H110.952Z" fill="#1D2633"/>
        <path fill-rule="evenodd" clip-rule="evenodd" d="M132.34 10.7042C131.909 11.6949 131.682 13.2655 131.661 15.4202H137.088V12.9975C137.088 11.6842 136.93 10.7255 136.618 10.1215C136.308 9.5202 135.688 9.21887 134.761 9.21887C133.578 9.21887 132.77 9.71487 132.34 10.7042ZM132.808 21.7189C133.55 22.9669 134.945 23.5909 136.99 23.5909C138.002 23.5909 138.901 23.4415 139.688 23.1389C140.473 22.8375 141.286 22.4069 142.126 21.8469L142.546 22.4615C140.544 24.0962 137.896 24.9162 134.601 24.9162C131.629 24.9162 129.288 24.1989 127.576 22.7669C125.864 21.3362 125.008 19.2415 125.008 16.4855C125.008 13.8802 125.88 11.8895 127.624 10.5109C129.368 9.1322 131.812 8.44287 134.956 8.44287C136.744 8.44287 138.25 8.72287 139.477 9.2842C140.705 9.84287 141.614 10.5909 142.206 11.5282C142.8 12.4642 143.094 13.5029 143.094 14.6442C143.094 15.2269 143.041 15.7642 142.934 16.2602H131.661C131.682 18.6495 132.065 20.4682 132.808 21.7189Z" fill="#1D2633"/>
        <path fill-rule="evenodd" clip-rule="evenodd" d="M158.321 8.54115C159.032 8.54115 159.592 8.62649 160 8.79982L159.516 13.8372H159.29L152.668 12.3838V22.9772C152.668 23.2145 152.717 23.3812 152.814 23.4772C152.91 23.5745 153.109 23.6558 153.41 23.7212L154.51 23.9478V24.5278H144.304V23.9478L145.434 23.6892C145.757 23.6238 145.966 23.5492 146.064 23.4625C146.161 23.3772 146.209 23.2145 146.209 22.9772V10.7692C146.209 10.5318 146.161 10.3718 146.064 10.2852C145.966 10.1998 145.757 10.1225 145.434 10.0598L144.304 9.80115V9.21849L152.054 8.25049H152.604V11.4145C154.477 9.49849 156.382 8.54115 158.321 8.54115Z" fill="#1D2633"/>
        <g opacity="0.5">
            <path opacity="0.5" fill-rule="evenodd" clip-rule="evenodd" d="M60.1672 34.8739C60.1672 31.8285 62.4259 29.7485 65.2499 29.7485C67.1952 29.7485 68.4139 30.6832 69.1872 31.8432L67.9232 32.5125C67.4032 31.6805 66.4232 31.0699 65.2499 31.0699C63.2432 31.0699 61.6979 32.6459 61.6979 34.8739C61.6979 37.0872 63.2432 38.6779 65.2499 38.6779C66.4232 38.6779 67.4032 38.0685 67.9232 37.2365L69.1872 37.9045C68.3992 39.0645 67.1952 39.9992 65.2499 39.9992C62.4259 39.9992 60.1672 37.9205 60.1672 34.8739Z" fill="#1D2633"/>
            <path opacity="0.5" fill-rule="evenodd" clip-rule="evenodd" d="M75.7785 31.0707C73.6532 31.0707 72.3158 32.6907 72.3158 34.8747C72.3158 37.044 73.6532 38.6774 75.7785 38.6774C77.8732 38.6774 79.2412 37.044 79.2412 34.8747C79.2412 32.6907 77.8732 31.0707 75.7785 31.0707ZM75.7785 29.748C78.7358 29.748 80.7705 31.9334 80.7705 34.8747C80.7705 37.8174 78.7358 40 75.7785 40C72.8212 40 70.7852 37.8174 70.7852 34.8747C70.7852 31.9334 72.8212 29.748 75.7785 29.748Z" fill="#1D2633"/>
            <path opacity="0.5" fill-rule="evenodd" clip-rule="evenodd" d="M91.8437 31.9469L88.6343 39.8216H88.0103L84.801 31.9469V39.8216H83.3157V29.9136H85.4397L88.3223 37.0282L91.205 29.9136H93.329V39.8216H91.8437V31.9469Z" fill="#1D2633"/>
            <path opacity="0.5" fill-rule="evenodd" clip-rule="evenodd" d="M104.866 31.9469L101.658 39.8216H101.033L97.8237 31.9469V39.8216H96.3384V29.9136H98.4624L101.345 37.0282L104.228 29.9136H106.352V39.8216H104.866V31.9469Z" fill="#1D2633"/>
            <path opacity="0.5" fill-rule="evenodd" clip-rule="evenodd" d="M109.359 29.9131H116.015V31.2198H110.845V34.1158H115.913V35.4251H110.845V38.5158H116.015V39.8224H109.359V29.9131Z" fill="#1D2633"/>
            <path opacity="0.5" fill-rule="evenodd" clip-rule="evenodd" d="M122.613 31.2198H120.115V34.6958H122.613C123.682 34.6958 124.455 33.9971 124.455 32.9598C124.455 31.9184 123.682 31.2198 122.613 31.2198ZM121.974 36.0024H120.115V39.8224H118.63V29.9131H122.806C124.693 29.9131 125.985 31.1304 125.985 32.9598C125.985 34.7398 124.781 35.6918 123.519 35.8558L126.059 39.8224H124.335L121.974 36.0024Z" fill="#1D2633"/>
            <path opacity="0.5" fill-rule="evenodd" clip-rule="evenodd" d="M127.957 34.8739C127.957 31.8285 130.216 29.7485 133.04 29.7485C134.985 29.7485 136.204 30.6832 136.977 31.8432L135.713 32.5125C135.193 31.6805 134.213 31.0699 133.04 31.0699C131.033 31.0699 129.488 32.6459 129.488 34.8739C129.488 37.0872 131.033 38.6779 133.04 38.6779C134.213 38.6779 135.193 38.0685 135.713 37.2365L136.977 37.9045C136.189 39.0645 134.985 39.9992 133.04 39.9992C130.216 39.9992 127.957 37.9205 127.957 34.8739Z" fill="#1D2633"/>
            <path opacity="0.5" fill-rule="evenodd" clip-rule="evenodd" d="M139.198 29.9131H145.854V31.2198H140.684V34.1158H145.752V35.4251H140.684V38.5158H145.854V39.8224H139.198V29.9131Z" fill="#1D2633"/>
        </g>
        <mask id="mask0" mask-type="alpha" maskUnits="userSpaceOnUse" x="5" y="0" width="48" height="41">
            <path d="M5.96045 0.000488281H52.6684V40.0002H5.96045V0.000488281Z" fill="white"/>
        </mask>
        <g mask="url(#mask0)">
            <path fill-rule="evenodd" clip-rule="evenodd" d="M45.3684 24.5125H52.6684L34.8271 0.000488281L5.96045 40.0005H13.2164L27.9604 19.6872L31.5058 24.5125L38.8258 24.5405L31.5831 14.6418L34.8658 10.0672L45.3684 24.5125Z" fill="#D8AF7C"/>
        </g>
        <path opacity="0.5" fill-rule="evenodd" clip-rule="evenodd" d="M0 29.9133H7.26133L28.7 0H21.4387L0 29.9133Z" fill="#D8AF7C"/>
    </g>
    <defs>
        <clipPath id="clip0">
            <rect width="160" height="40" fill="white"/>
        </clipPath>
    </defs>
</svg>
