<?xml version="1.0" encoding="utf-8"?>
<!-- Generator: Adobe Illustrator 23.1.0, SVG Export Plug-In . SVG Version: 6.00 Build 0)  -->
<svg version="1.1" id="Raw" xmlns="http://www.w3.org/2000/svg" xmlns:xlink="http://www.w3.org/1999/xlink" x="0px" y="0px"
	 viewBox="0 0 183.9 183.9" style="enable-background:new 0 0 183.9 183.9;" xml:space="preserve">
<path d="M168.7,0H15.3C6.9,0,0,6.9,0,15.3v153.3c0,8.5,6.9,15.3,15.3,15.3h153.3c8.5,0,15.3-6.9,15.3-15.3V15.3
	C184,6.9,177.1,0,168.7,0z M61.3,138c0,4.2-3.4,7.7-7.7,7.7S46,142.2,46,138V76.7c0-4.2,3.4-7.7,7.7-7.7s7.7,3.4,7.7,7.7V138H61.3z
	 M53.7,57.5c-6.4,0-11.5-5.1-11.5-11.5s5.1-11.5,11.5-11.5S65.2,39.6,65.2,46S60,57.5,53.7,57.5z M145.7,138c0,4.2-3.4,7.7-7.7,7.7
	s-7.7-3.4-7.7-7.7v-34.5c0-10.6-8.6-19.2-19.2-19.2S92,92.9,92,103.5V138c0,4.2-3.4,7.7-7.7,7.7c-4.2,0-7.7-3.4-7.7-7.7V76.7
	c0-4.2,3.4-7.7,7.7-7.7c3.6,0,6.7,2.5,7.5,6c15.8-10.7,37.2-6.6,47.9,9.1c3.9,5.7,6,12.5,6,19.4L145.7,138L145.7,138z"/>
</svg>
