<svg xmlns="http://www.w3.org/2000/svg" xmlns:xlink="http://www.w3.org/1999/xlink" x="0px" y="0px" viewBox="0 0 131.9 188">
<path d="M66,132.6c-21.3,0-38.6-17.3-38.6-38.6V38.6C27.4,17.3,44.7,0,66,0s38.6,17.3,38.6,38.6V94C104.6,115.3,87.3,132.6,66,132.6
	z M66,8C49.1,8,35.4,21.7,35.4,38.6V94c0,16.9,13.7,30.6,30.6,30.6S96.6,110.9,96.6,94V38.6C96.6,21.7,82.9,8,66,8z"/>
	<path d="M66,188c-2.2,0-4-1.8-4-4v-27.7c0-2.2,1.8-4,4-4s4,1.8,4,4V184C70,186.2,68.2,188,66,188z"/>
	<path d="M66,160.3c-2.4,0-4.9-0.1-7.4-0.4c-14.9-1.6-28.9-8.4-39.5-19S1.7,116.2,0,101.3c-0.2-2.2,1.3-4.2,3.5-4.4
	c2.2-0.2,4.2,1.3,4.4,3.5c3,26.8,24.6,48.5,51.5,51.5c32,3.6,60.9-19.5,64.5-51.5c0.2-2.2,2.2-3.8,4.4-3.5c2.2,0.2,3.8,2.2,3.5,4.4
	C128.1,135.2,99.3,160.3,66,160.3z"/>
</svg>
