<?xml version="1.0" encoding="utf-8"?>
<!-- Generator: Adobe Illustrator 23.1.0, SVG Export Plug-In . SVG Version: 6.00 Build 0)  -->
<svg version="1.1" id="Raw" xmlns="http://www.w3.org/2000/svg" xmlns:xlink="http://www.w3.org/1999/xlink" x="0px" y="0px"
	 viewBox="0 0 210.5 184" style="enable-background:new 0 0 210.5 184;" xml:space="preserve">
<path d="M208.2,37.7l-29.7,29.7c-0.8,29.4-12,58-31,79C125.2,171,94.4,184,58.5,184c-34.9,0-52.9-17.6-53.7-18.3
	c-3.1-3.1-3.1-8.2,0-11.3c1.1-1.1,2.5-1.9,4.1-2.2c8.5-1.7,29.7-8.5,38.7-20.6c-9.7-5.6-18.3-12.8-25.3-21.5
	C-2.8,79.6-2.2,41.3,2.6,14.6c0.8-4.3,5-7.2,9.3-6.4c1.9,0.3,3.6,1.4,4.8,2.9c0.3,0.3,26.6,32.6,65.8,43.1V48
	c0.2-26.7,21.9-48.2,48.6-48c16.9,0.2,32.5,9.3,41,24l30.4,0c4.4,0,8,3.6,8,8C210.5,34.1,209.7,36.2,208.2,37.7z"/>
</svg>
