<?xml version="1.0" standalone="no"?>
<!DOCTYPE svg PUBLIC "-//W3C//DTD SVG 20010904//EN"
 "http://www.w3.org/TR/2001/REC-SVG-20010904/DTD/svg10.dtd">
<svg version="1.0" xmlns="http://www.w3.org/2000/svg"
 width="260.000000pt" height="260.000000pt" viewBox="0 0 260.000000 260.000000"
 preserveAspectRatio="xMidYMid meet">
<metadata>
Created by potrace 1.14, written by Peter Selinger 2001-2017
</metadata>
<g transform="translate(0.000000,260.000000) scale(0.100000,-0.100000)"
fill="#000000" stroke="none">
<path d="M969 2001 c-63 -87 -249 -346 -414 -576 -165 -229 -307 -426 -315
-438 -8 -12 -27 -38 -42 -58 -15 -20 -28 -41 -28 -47 0 -10 257 -15 292 -5 10
2 157 198 327 436 171 238 376 523 456 634 80 111 145 204 145 207 0 3 -69 6
-153 6 l-154 0 -114 -159z"/>
<path d="M1631 2117 c-69 -92 -260 -356 -940 -1297 -57 -80 -142 -197 -188
-260 l-83 -115 147 -3 c81 -1 152 -1 158 2 6 2 147 190 312 417 166 228 308
422 315 433 13 17 19 11 78 -70 94 -129 73 -119 245 -119 83 0 150 4 149 9 -1
4 -27 43 -58 85 -31 42 -99 133 -150 203 l-94 127 64 90 c35 50 68 92 73 95 5
3 108 -132 230 -299 123 -168 226 -306 229 -306 22 -4 289 -4 300 -1 10 3 8
10 -6 26 -10 11 -97 129 -193 261 -95 132 -177 245 -182 250 -4 6 -34 46 -66
90 -32 44 -114 158 -183 252 l-126 173 -31 -43z"/>
</g>
</svg>
